<?xml version="1.0" encoding="utf-8"?>
<!-- Generator: Adobe Illustrator 19.0.0, SVG Export Plug-In . SVG Version: 6.00 Build 0)  -->
<svg version="1.2" baseProfile="tiny" id="圖層_1"
	 xmlns="http://www.w3.org/2000/svg" xmlns:xlink="http://www.w3.org/1999/xlink" x="0px" y="0px" width="525px" height="1018.4px"
	 viewBox="0 0 525 1018.4" xml:space="preserve">
<path id="XMLID_2_" fill="none" stroke="#000000" stroke-miterlimit="10" d="M182,1007.9c5.1,0.6,12.2-11.1,15.5-9
	c3.8,2.1,17.4,19.1,23.3,19.1c4.5,0,3.4-4.6,0.8-14c-2.2-8.4-4-14.8-0.7-17.9c3.3-3.1,9.7-4.2,10.8-11.8c1.1-7.6-8-93-4.4-98.8
	c3.6-6,116.3-168.4,123.7-193.6c3.6-14.8,41.4-100.4,41.5-120.6c0-9.4,17.7-109.5,31.4-136.9c6-12.5,11.9-72.4,11.9-76
	c0-3.6,1.7-15.2,14.7-32.5c21.5-21.8,19.9-61,35.6-72.5c11.5-6.4,14.7-21.9,7.5-27c-13.2-9.8,2.6-108,8.7-112.8
	c6.1-4.8,17.2-10.4,19-11.7c1.8-1.3,4.4-8,2.7-10.9c-1.5-2.7-18.9-29.7-28.4-32c-8.6-0.9-25.9,2.2-37.7-4.6
	c-11.8-6.9-28.7-17.6-31.1-28.5C424.4,0.5,397-4.3,386.7,5.8c-3.7,3.9-66.2,46.4-72.2,47.4c-20.6,5-69.9,54.2-71.7,56
	c-1.8,1.8-14.2,52.5-29.2,62.4c-5.9,3.7-40.2,30.5-42.1,39.7c-1.2,4.5-27.1,54.8-28.9,57c-1.9,2.5-69.2,116.4-69.3,124
	c-0.5,8.3-7.2,30.2-16.6,42.1c-8.7,9.7-20.6,20.5-23.5,32.3C30.1,478.4,17.4,497,18,515.2c1.2,18-9.6,84.8-9.9,87.6
	c-0.5,3.1-5.9,34.9-7.2,39.9C-4,676.1,44.7,791.2,49.5,796.5c1.2,1.9,35.5,44.2,44.6,45.3c9.2,2.4,40.2,18.1,48.1,31.3
	C161,906.2,166,1003.7,182,1007.9z"/>
</svg>
