<?xml version="1.0" encoding="utf-8"?>
<!-- Generator: Adobe Illustrator 19.0.0, SVG Export Plug-In . SVG Version: 6.00 Build 0)  -->
<svg version="1.2" baseProfile="tiny" id="圖層_1"
	 xmlns="http://www.w3.org/2000/svg" xmlns:xlink="http://www.w3.org/1999/xlink" x="0px" y="0px" width="547.6px" height="353.8px"
	 viewBox="0 0 547.6 353.8" xml:space="preserve">
<g id="XMLID_60_">
	<path id="XMLID_61_" fill="#FFFFFF" d="M31.3,328.6h29.4c0.5,1.9,0.7,4,0.7,6c-0.1,2.7-1,5.2-1.1,7.9c-0.1,2.2,0,4.5,0.1,6.7
		c0.1,0.8,0.1,1.7,0.2,2.5c0,0.2,0.2,0.7,0.2,0.8h6.8c-0.2-0.3-0.1-0.8-0.2-1.2c-0.1-0.9-0.2-1.7-0.2-2.6c-0.2-2.3-0.2-4.5-0.1-6.8
		c0.2-2.7,1.1-5.2,1.1-7.9c0-1.8-0.2-3.7-0.7-5.5h0h29.4v-6.2H31.3V328.6z"/>
	<rect id="XMLID_62_" x="39.6" y="309.3" fill="#FFFFFF" width="48.9" height="5.9"/>
	<path id="XMLID_64_" fill="#FFFFFF" d="M78.6,332.5l-4.3,4.2c0,0,6.4,10.1,18.1,14.6l0,0.1l4.3-4.3C85,342.6,78.6,332.5,78.6,332.5
		z"/>
	<path id="XMLID_67_" fill="#FFFFFF" d="M29.3,347.6l4.6,4.1c10.4-4.7,18.5-15.3,18.5-15.3l-4.6-4.1
		C47.7,332.3,39.7,342.9,29.3,347.6z"/>
	<path id="XMLID_70_" fill="#FFFFFF" d="M95.5,266.3H31.7v6.1h20.2c0,0,0.9,3.1,0.9,7.2h-0.9H35.4v23.1h56.8v-23.1H76.6
		c0-3.8-1-7.2-1-7.2h19.9V266.3z M51.9,296.9h-9.8v-11.6c0,0,4.1,0,9.8,0C50.9,289,50.6,293.3,51.9,296.9z M69,296.9H58.4
		c-1.3-3.6-1.1-7.9,0-11.6c3.5,0,7.2,0,10.7,0C67.5,288.9,67.8,293.3,69,296.9z M59.2,279.6c0.1-4.1-0.9-7.2-0.9-7.2h10.7
		c0,0,1,3.4,1,7.2H59.2z M75.6,285.3c5.6,0,9.7,0,9.9,0v11.6h-10C74.2,293.3,74,288.9,75.6,285.3z"/>
	<polygon id="XMLID_74_" fill="#FFFFFF" points="24.7,265.4 19.1,261.9 1,286.2 6.8,289.9 	"/>
	<path id="XMLID_75_" fill="#FFFFFF" d="M31.7,313.4l-5.4-3.8l-4.6,6.6c-2.1,2.4-5.9,2.7-8.4,0.6c-2.3-2-2.8-5.5-1-8l12.5-17
		l-5.4-3.8L6.8,305c-5.3,7.7-0.4,18.6,8.9,19.7L0,346.9l5.6,3.9l21.8-31.4c0,0,0,0,0,0h0L31.7,313.4z"/>
	<polygon id="XMLID_76_" fill="#FFFFFF" points="155.1,286.2 160.9,289.9 178.9,265.4 173.3,261.9 	"/>
	<path id="XMLID_77_" fill="#FFFFFF" d="M180.4,309.6l-4.6,6.6c-2.1,2.4-5.9,2.7-8.4,0.6c-2.3-2-2.8-5.5-1-8l12.5-17l-5.4-3.8
		l-12,16.3l-0.5,0.7c-5.3,7.7-0.4,18.6,8.9,19.7l-15.6,22.2l5.6,3.9l26-37.5L180.4,309.6z"/>
	<path id="XMLID_78_" fill="#FFFFFF" d="M221.4,315.2l18-11.5v-5.2h-48.8v6.6h35.9l-12,7.4v10.2h-29.6v6.9h29.6v9.2
		c0,0-0.5,6.2-10.8,6.2v7c0,0,17.8-0.5,17.8-13.1v-9.2h25.9v-6.9h-25.9V315.2z"/>
	<rect id="XMLID_79_" x="185.8" y="265.4" fill="#FFFFFF" width="56.6" height="5.9"/>
	<path id="XMLID_80_" fill="#FFFFFF" d="M216.8,274.1h-4.9c0.5,3.1,1.1,6.9,0,9.9c-1.1,3-0.5,6.8,0,9.9h4.9c-0.5-3.1-1.1-6.9,0-9.9
		C217.9,281,217.3,277.2,216.8,274.1z"/>
	<path id="XMLID_81_" fill="#FFFFFF" d="M199.3,274.1h-4.9c0.5,3.1,1.1,6.9,0,9.9c-1.1,3-0.5,6.8,0,9.9h4.9c-0.5-3.1-1.1-6.9,0-9.9
		C200.4,281,199.8,277.2,199.3,274.1z"/>
	<path id="XMLID_82_" fill="#FFFFFF" d="M234.3,274.1h-4.9c0.5,3.1,1.1,6.9,0,9.9c-1.1,3-0.5,6.8,0,9.9h4.9c-0.5-3.1-1.1-6.9,0-9.9
		C235.4,281,234.8,277.2,234.3,274.1z"/>
	<path id="XMLID_83_" fill="#FFFFFF" d="M315.5,320.6C315.5,320.6,315.5,320.6,315.5,320.6c0,0,0.1,0,0.1,0c0,0,0,0,0,0
		C315.6,320.6,315.6,320.6,315.5,320.6z"/>
	<path id="XMLID_86_" fill="#FFFFFF" d="M322.1,318.9c-1.7,0.9-3.7,1.9-5.7,1.9c-0.3,0-0.6-0.1-0.9-0.2c-0.5-0.3-0.6-1-0.6-1.2
		c0.2-1.5,1.7-2.9,2.6-4c1.3-1.5,2.6-2.9,4-4.2c2.7-2.7,5.6-5.1,8.2-7.8c2.1-2.1,2.5-5.3,0.8-7.8c-1.6-2.5-4.6-3.2-7.3-2
		c-2.6,1.1-4.7,3-7.4,3.8c-0.8,0.2-2.6,0.8-3.1-0.2c-0.5-0.9,0.8-2.2,1.3-2.8c2.3-2.8,4-6.1,5.6-9.3c1.8-3.5,3.5-7,5.1-10.6
		c0.9-2.1,1.8-4.1,2.7-6.2c0.2-0.4,1.3-2.3,1.1-2.6c-0.1-0.1-0.5-0.3-0.6-0.4c-1.5-0.9-3-1.8-4.4-2.7c-1.9,4.6-3.9,9.1-6,13.6
		c-2.1,4.4-4.2,8.8-6.8,12.8c-1.9,3-5.1,6.9-3.5,10.7c1.4,3.2,5,3.8,8.2,3.5c1.8-0.2,3.5-0.7,5.2-1.4c1-0.4,1.9-0.8,2.9-1.3
		c0.5-0.3,0.9-0.5,1.4-0.8c0.1-0.1,0.7-0.5,0.8-0.5c0.4,0.2-0.7,0.9-0.9,1.1c-0.9,0.8-1.8,1.6-2.7,2.4c-1.7,1.5-3.3,3.1-4.9,4.7
		c-2.9,2.9-6.5,6.3-7.7,10.4c-1.1,3.7,0.9,7.8,4.7,8.8c4.1,1.1,8.5-1,11.9-2.9c4.6-2.6,8.7-6,12.7-9.4c-1.3-1.5-2.6-3-3.9-4.4
		C330.9,313,326.7,316.4,322.1,318.9z M315.5,320.6c-0.1,0-0.1-0.1-0.2-0.1C315.4,320.6,315.5,320.6,315.5,320.6
		C315.5,320.6,315.5,320.6,315.5,320.6c0.1,0,0.1,0,0.1,0c0,0,0,0,0,0c0,0,0,0,0,0C315.7,320.7,315.6,320.6,315.5,320.6z"/>
	<path id="XMLID_87_" fill="#FFFFFF" d="M354.2,295.5v4.8c11.4,0,10.9-9.6,10.9-9.6v-24.5h-24.3v5.4h18v3.4h-17.5v4.9h17.5v2.7v1.5
		h-17.5v4.9h17.5v2.4h0C358.8,291.4,359,295.5,354.2,295.5z"/>
	<path id="XMLID_88_" fill="#FFFFFF" d="M370.7,296.2H366c-6,6.8-14.5,12.3-25.6,16.5l3.5,5.5c9.8-3.9,18-9.4,24.5-16.5
		c5.9,6.7,14.7,12.2,26.7,16.7l3.5-5.5C385.4,308.1,376.1,302.5,370.7,296.2z"/>
	<path id="XMLID_89_" fill="#FFFFFF" d="M381.2,295.3v5c11.9,0,11.4-10,11.4-10l0-24h-23.5v5.4h17.1v3.4h-17.5v4.9h17.5v1.9v2.3
		h-17.5v4.9h17.5v1.9C386.2,290.9,386.4,295.3,381.2,295.3z"/>
	<path id="XMLID_90_" fill="#FFFFFF" d="M313,328.7c0,0-0.8,14.5-4.6,22.3h5.3c3.8-7.8,4.6-22.3,4.6-22.3H313z"/>
	<path id="XMLID_91_" fill="#FFFFFF" d="M317.8,350.3h5.3c3.8-7.8,4.6-22.3,4.6-22.3h-5.3C322.5,328,321.6,342.5,317.8,350.3z"/>
	<path id="XMLID_92_" fill="#FFFFFF" d="M328.1,348.4h5.3c3.8-7.8,4.6-22.3,4.6-22.3h-5.3C332.7,326.1,331.9,340.6,328.1,348.4z"/>
	<path id="XMLID_93_" fill="#FFFFFF" d="M383.6,332h-14.5c3.1-1.6,6-3.4,8.7-5.7c1.1-0.9,2.5-1.9,2.8-3.3c0.2-1.2-0.4-2.5-1.5-3.1
		c-1-0.6-2.3-0.4-3.4-0.4c-1.9,0-3.7,0-5.6,0c-1.3,0-2.6,0-3.8,0c6.3-3.8,9.4-7.8,9.6-8l-4.7-3.6c-1.7,2.2-4,3.9-6.2,5.4
		c-2.2,1.5-4.6,2.8-7,3.8c-2.4,1-4.9,1.7-7.4,2.4c-1.9,0.6-3.4,2.3-2.3,4.4c1.1,2,3.7,1.5,5.6,1.5c2.9,0,5.8,0,8.7,0
		c2.1,0,4.1,0,6.2,0c-2.7,1.6-5.5,2.9-8.3,4c-2.9,1.1-5.9,1.8-8.9,2.6c-2.2,0.6-3.5,3.1-1.7,5c0.7,0.8,1.6,0.9,2.6,0.9
		c5.7,0,11.3,0,17,0c2,0,3.9,0,5.9,0c-5.3,3.4-14.5,7.6-29,10.1l1,5.8c7-1.2,13.9-2.9,20.6-5.6c6.2-2.5,12.6-5.8,17.4-10.6
		c1-1,1.7-2.1,1.3-3.5C386,332.9,384.9,332,383.6,332z"/>
	<path id="XMLID_96_" fill="#FFFFFF" d="M505,321.7h-6.3H497c-1-3.2-1.6-6.6-1.8-9.9c-0.3-3.2-0.2-6.5,0.3-9.7
		c0.5-3.4,1.9-6.4,2.6-9.7c0.8-3.9,1-7.9,0.9-11.9h6.2v-6.4h-6.5h-0.1c-0.6-6.2-1.6-10.8-1.6-10.8h-6.9c0,0,1,4.6,1.6,10.8h-14.8
		c-0.6-6.2-1.6-10.8-1.6-10.8h-6.9c0,0,1,4.6,1.6,10.8h-2.7h-6.5v6.4h6.5h3.1c0.1,3.5,0,7.1-0.6,10.5c-0.6,3.3-1.9,6.4-2.6,9.7
		c-1.2,5.7-0.9,11.7,0.4,17.4c0.3,1.2,0.5,2.4,0.9,3.5h-1.2h-7.3v6.6h45V321.7z M475.4,321.7c0,0-1.4-4.1-1.8-9.7h14.8
		c0.5,5.7,1.8,9.7,1.8,9.7H475.4z M488.3,305.9h-14.8c0.2-3.1,0.7-6.4,1.9-9.5h14.8C489,299.5,488.4,302.8,488.3,305.9z
		 M491.6,290.4h-14.8c0.5-3.2,0.6-6.5,0.5-9.8h14.8C492.2,283.8,492.1,287.2,491.6,290.4z"/>
	<path id="XMLID_99_" fill="#FFFFFF" d="M517.1,294.7v-17.8c10.6-0.6,20.3-2.8,29.1-6.6l-3.3-6.2c-9.6,4.3-20.3,6.6-32.2,7v38.4
		c-0.5,16.1-4,28.8-10.7,37.9l4.9,5.2c7.7-10.8,11.8-25.1,12.3-43.1v-8.1h13.3v28.9c0,0,1,11.1-8.4,17l3.5,5.2
		c11.8-6.5,11.8-22.2,11.8-22.2v-28.9h0.1h10.3v-6.8H517.1z"/>
	<path id="XMLID_100_" fill="#FFFFFF" d="M470.3,331.1c0,0-5,12.4-13.5,19.8h8.7c8.5-7.5,11.8-19.8,11.8-19.8H470.3z"/>
	<path id="XMLID_101_" fill="#FFFFFF" d="M477.4,350.9h8.7c8.5-7.5,11.8-19.8,11.8-19.8h-7C490.8,331.1,485.9,343.5,477.4,350.9z"/>
	<path id="XMLID_104_" fill="#FFFFFF" d="M138.7,93.8c4.6,4.8,10.8,7.8,17.2,8.9c13.4,2.3,27.7-2.8,34.7-14.8
		c6.8-11.7,5.9-27.9-2.7-38.5c-8.7-10.7-24.1-14-36.9-9.7c-6.3,2.1-11.7,6.1-15.5,11.5c-3.9,5.7-5.8,12.5-5.8,19.4
		c0,1.8,0.1,3.5,0.4,5.3C131.1,82.5,134,88.9,138.7,93.8z M143.2,54.1c3.5-4.4,8.7-7.5,14.2-8.5c10.2-1.9,21.1,2.2,26.3,11.5
		c5.1,9,4.5,21.8-2,30c-6.5,8.2-18.2,11-27.9,7.5c-4.7-1.6-8.8-4.7-11.6-8.8c-3-4.4-4.4-9.8-4.4-15.2
		C137.9,64.7,139.5,58.7,143.2,54.1z"/>
	<path id="XMLID_107_" fill="#FFFFFF" d="M224.8,99.7c6.1,3.8,14.2,4.3,21.1,2.8c6.4-1.4,11.3-5.4,14.5-11h0.3c0,3.7,0.3,7,0.8,10.1
		h7.5c-1.3-8.6-1.2-17.4-1.2-26.1V60.3c0-4.4-0.7-9-2.9-12.8c-4-6.8-12.4-9.3-19.8-9.6c-9-0.4-19,2.3-25.6,8.7l4.7,5.5
		c2.7-2.3,5.9-4.2,9.3-5.4c5.9-2.1,13.1-2.4,19,0.1c2.5,1.1,4.8,2.7,6.2,5c1.5,2.5,1.9,5.4,1.9,8.3V64h-9.4
		c-7.9,0-16.5,0.6-23.7,4.1c-2.9,1.4-5.7,3.5-7.6,6.1c-1.9,2.4-2.7,5.4-3,8.4c-0.3,3.4,0,7,1.5,10C219.8,95.5,222.1,98,224.8,99.7z
		 M251.7,70.4h8.9v4.2c0,6.7-1.9,13.5-7.5,17.5c-4.5,3.2-10.6,4.4-16.1,3.7c-5.7-0.6-11.5-4.2-12.1-10.4
		C223.6,72,242.3,70.4,251.7,70.4z"/>
	<path id="XMLID_108_" fill="#FFFFFF" d="M8.5,101.6h9c0,0-4.3-26.9-1-45.1h45.6v-8.1H18.3c2.2-11.3,1.3-25.3,0.3-33.9h46.9V6.4h-48
		h-9l0.2,1.1c1.9,11.9,2.9,24.5,1.4,36.6c-0.8,6.1-2.7,11.9-3.3,18c-0.6,6.1-0.6,12.3-0.3,18.4C6.8,87.6,7.4,94.6,8.5,101.6z"/>
	<path id="XMLID_109_" fill="#FFFFFF" d="M100.4,0c-2.7,0-5.4,0-8.1,0c1.7,7,2.6,14.2,3.1,21.4c0.5,7.2,0.3,14.4-1,21.5
		c-0.7,3.6-1.9,7-2.9,10.5c-1,3.4-1.6,7-2,10.6c-0.8,7.4-0.5,14.9,0.3,22.3c0.4,4.1,1.1,8.2,1.9,12.2c0.2,0.8,0.2,1.8,0.6,2.6
		c0.3,0.7,1,0.4,1.7,0.4c2.2,0,4.3,0,6.5,0c-1.6-6.4-2.4-13.1-2.9-19.7c-0.5-6.7-0.5-13.6,0.4-20.3c0.9-6.5,3.5-12.6,4.6-19
		c1.2-6.6,1.4-13.3,1-20C103.1,15,102.2,7.4,100.4,0C97.7,0,101.3,3.8,100.4,0z"/>
	<path id="XMLID_110_" fill="#FFFFFF" d="M362.5,20.9c5.5,1,9.3-5.6,5.7-9.9c-3.6-4.2-10.7-1.6-10.7,3.9
		C357.5,17.8,359.6,20.4,362.5,20.9z"/>
	<path id="XMLID_111_" fill="#FFFFFF" d="M369.3,57.8c0-4.8-0.4-9.6-1.1-14.4c-0.1-1.1-0.2-2.2-0.5-3.3c-0.2-0.8-0.8-0.7-1.5-0.7
		c-2.2,0.1-4.4,0.1-6.7,0.1c0.8,4.6,1.3,9.2,1.6,13.9c0.2,4.1,0.2,8.3-0.5,12.4c-0.7,3.9-2.1,7.5-2.5,11.4c-0.8,8.1,0,16.9,1.4,24.4
		c2.7,0,5.4,0,8.1,0c-1-5.4-1.5-10.9-1.7-16.5c-0.1-4.6,0.1-9.3,1.4-13.7C368.7,66.9,369.3,62.5,369.3,57.8z"/>
	<path id="XMLID_112_" fill="#FFFFFF" d="M321.4,106.5V97c-8.4-1.6-8.4-9.8-8.4-9.8V46.8h12.6v-7.3H313V21.6h-8.1v17.9h-5.2h-13.4
		v7.3h13.4h5.2v40.4C304.9,87.2,304.3,101.4,321.4,106.5z"/>
	<path id="XMLID_113_" fill="#FFFFFF" d="M532.6,79.3C532.6,79.3,532.6,79.3,532.6,79.3C532.6,79.3,532.6,79.3,532.6,79.3
		C532.6,79.3,532.6,79.3,532.6,79.3z"/>
	<path id="XMLID_116_" fill="#FFFFFF" d="M504.4,101.1c11.2,2,23.4-1.5,29.6-11.6h0.3v8.6c0,1.2,0,2.7-0.1,4.5l0,0
		c0,0-1.1,17.6-20.2,22.8h-19.3v8.8H514c25.2-6.3,28.2-31.6,28.2-31.6v0c0.1-1.6,0.2-3.3,0.2-5.1v-58h-8.1V50h-0.3
		c-5.5-8.9-15.6-12.7-25.7-12c-10.3,0.6-20.3,6.3-25.9,15c-5.9,9-6.7,20.7-1.8,30.4C485.2,92.6,494.2,99.2,504.4,101.1z M495.1,50.2
		c8.4-6.3,20-6.6,28.7-0.8c9.6,6.4,13.4,19.3,8.8,30c0.3-0.7,0.6-1.5,0,0c-0.6,1.5-0.3,0.8,0,0c-4.1,9.5-13.7,15.5-24.1,14.9
		c-10.1-0.6-19-7.6-22-17.2C483.5,67.3,487,56.3,495.1,50.2z"/>
	<path id="XMLID_117_" fill="#FFFFFF" d="M439.5,37.3h-22.9c-8.4,0-15.1,6.8-15.1,15.1v49.1h8V52.5h0c0-3.9,3.2-7.1,7.1-7.1h22.9
		c3.9,0,7.1,3.2,7.1,7.1h0v49.1h8V52.5h0C454.7,44.1,447.9,37.3,439.5,37.3z"/>
	<path id="XMLID_118_" fill="#FFFFFF" d="M274.5,205.3L274.5,205.3c0,3.9-3.2,7.1-7.1,7.1h-22.9c-3.9,0-7.1-3.2-7.1-7.1h0v-49.1h-8
		v49.1h0c0,8.4,6.8,15.1,15.1,15.1h22.9c8.4,0,15.1-6.8,15.1-15.1v-49.1h-8V205.3z"/>
	<path id="XMLID_119_" fill="#FFFFFF" d="M162.6,219l-0.8-69.2c0-6.7-2.6-12.9-6.8-17.5h20c9.6,0,17.5,7.8,17.5,17.5V219h9.3
		l-0.8-69.2c0-14.3-11.6-25.9-25.9-25.9h-41.8c-14.3,0-25.9,11.6-25.9,25.9l-0.8,69.2h9.3v-69.2c0-9.6,7.8-17.5,17.5-17.5h2.7
		c9.6,0,17.5,7.8,17.5,17.5V219H162.6z"/>
	<path id="XMLID_120_" fill="#FFFFFF" d="M315.7,172.6c-1.1,0.7-2.3,1.4-3.6,1.7l0.1,0l-0.1,9c1.7,0,3.5-0.7,5-1.4
		c2.6-1.2,5-2.9,7.1-4.9c1.4-1.3,2.7-2.7,3.8-4.2c1.3-1.8,2.4-3.7,3.7-5.5c2.6-3.6,6.6-7.5,11.2-8.4v-8.5c-1.8,0-3.6,0.6-5.2,1.2
		c-6.4,2.5-11.2,7.6-14.7,13.3C321,167.8,318.7,170.6,315.7,172.6z"/>
	<path id="XMLID_121_" fill="#FFFFFF" d="M317,211.1v8.5c0.4-0.1,4.6-0.2,10.1-3.6c4.2-2.5,7.8-5.9,10.9-9.6c3-3.6,5.2-7.8,8.1-11.6
		c2.3-3,5-5.7,8.1-7.9c2.8-2,6.2-3.9,9.6-4.6v-8.5c-0.6,0.1-17.6,1.1-28.1,20.9C327,209.1,317.4,211,317,211.1z"/>
	<path id="XMLID_122_" fill="#FFFFFF" d="M426.5,157.6c-10.5-4.6-23.4-2.4-32.1,4.9c-9.4,7.9-12.8,21.3-10.4,33
		c1.3,6.2,4.2,11.9,8.6,16.4c4.8,4.7,11,7.6,17.7,8.4c6.7,0.9,13.8-0.1,19.9-3c3-1.4,5.9-3.4,8.2-5.9c0.9-1,1.8-2.1,2.6-3.1
		c0.2-0.2,0.7-0.7,0.7-1c0-0.4-1.3-1.1-1.6-1.4c-1.4-1.2-2.9-2.4-4.3-3.7c-4.2,7-12.4,10.7-20.4,11c-4.3,0.1-8.7-0.7-12.4-2.9
		c-3.8-2.2-6.9-5.7-8.9-9.6c-2.3-4.5-2.8-9.5-2.8-14.5c0-2.4,0.1-4.9,0.8-7.2c0.8-2.3,1.9-4.5,3.2-6.5c5-7.4,13.5-11.2,22.3-9.7
		c9.7,1.7,17.8,9.7,17.8,19.9c-8,0-16,0-23.9,0c-3.9,0-7.9,0-11.8,0c-0.9,0-1.7,0-2.6,0c-0.6,0-0.6-0.1-0.7,0.2
		c-0.2,0.5,0,1.5,0,2.1c0,1.6,0,3.3,0,4.9h47.2v-5.6C443.5,173.1,436.9,162.2,426.5,157.6z"/>
</g>
<g id="XMLID_40_">
</g>
<g id="XMLID_41_">
</g>
<g id="XMLID_42_">
</g>
<g id="XMLID_43_">
</g>
<g id="XMLID_44_">
</g>
<g id="XMLID_45_">
</g>
<g id="XMLID_46_">
</g>
<g id="XMLID_47_">
</g>
<g id="XMLID_48_">
</g>
<g id="XMLID_49_">
</g>
<g id="XMLID_50_">
</g>
</svg>
